#!OML:ASF F:\twosubjects\two\wednesday\Session 1\rory1.ASF
:FULLY-SPECIFIED
:DEGREES
1415
root 19.145 13.6087 12.99 219.031 -18.7916 -170.289
lowerback 40.0052 -0.443328 -0.016966
upperback 20.1452 -7.31751 -7.89838
thorax 1.87632 -4.93906 -6.00679
lowerneck -26.8572 19.589 10.5632
upperneck -30.412 17.2406 -21.7329
head -2.399 5.10591 -7.25756
rclavicle 5.725e-014 1.35174e-013
rhumerus 24.7305 -8.6556 -94.3666
rradius 64.2806
rwrist -27.126
rhand -34.1493 51.8649
rfingers 7.12502
rthumb -7.32373 22.0116
lclavicle 5.725e-014 1.35174e-013
lhumerus 39.5487 10.327 69.3557
lradius 43.6368
lwrist -1.82734
lhand -47.9629 29.3701
lfingers 7.12502
lthumb -20.6328 -301.707
rfemur -105.565 -0.446826 3.42684
rtibia 89.285
rfoot -14.9821 -2.34326
rtoes -29.3509
lfemur -46.4106 1.98732 -1.08307
ltibia 104.138
lfoot -3.21945 -10.7097
ltoes -30.6873
1416
root 19.1723 13.6413 12.6157 218.924 -19.3662 -170.631
lowerback 40.5874 -0.173208 0.00220433
upperback 20.1732 -6.97855 -7.50555
thorax 1.83933 -4.79151 -5.69423
lowerneck -26.5299 18.6001 9.04257
upperneck -30.6136 16.3619 -21.6541
head -2.73436 4.93789 -7.17023
rclavicle -9.54166e-015 -2.14687e-014
rhumerus 27.5953 -8.29014 -91.8512
rradius 63.5293
rwrist -24.9537
rhand -35.3888 57.0075
rfingers 7.12502
rthumb -8.51999 27.1994
lclavicle -9.54166e-015 -2.14687e-014
lhumerus 39.3998 9.95231 70.1179
lradius 42.1978
lwrist -2.40653
lhand -47.2923 32.9163
lfingers 7.12502
lthumb -19.9883 -298.092
rfemur -105 -0.660221 4.05313
rtibia 91.263
rfoot -15.652 -0.994391
rtoes -29.8746
lfemur -50.4596 3.37914 -1.72991
ltibia 108.61
lfoot -4.59921 -10.4514
ltoes -33.8528
1417
root 19.2159 13.6526 12.2592 219.667 -19.8733 -170.892
lowerback 40.124 -0.260418 -0.286305
upperback 19.907 -6.99 -7.67033
thorax 1.66639 -4.76404 -5.71062
lowerneck -24.6934 17.9485 8.59177
upperneck -31.5573 15.8619 -21.4274
head -3.36231 4.94391 -7.23575
rclavicle -3.18055e-015 3.4191e-014
rhumerus 29.4453 -7.5933 -90.0165
rradius 64.8157
rwrist -24.9702
rhand -34.9059 53.0888
rfingers 7.12502
rthumb -8.05399 23.2623
lclavicle -3.18055e-015 3.4191e-014
lhumerus 38.5082 10.1831 69.2835
lradius 40.6293
lwrist -2.2492
lhand -47.7045 33.0265
lfingers 7.12502
lthumb -20.3844 -298.023
rfemur -105.535 -1.06357 4.65823
rtibia 93.1051
rfoot -15.8771 0.728621
rtoes -30.7877
lfemur -55.762 5.4399 -2.39509
ltibia 113.016
lfoot -5.45093 -11.0897
ltoes -33.2137
1418
root 19.2619 13.6895 11.8969 219.945 -20.4263 -171.155
lowerback 40.3152 -0.254605 -0.717782
upperback 19.4994 -6.97381 -7.73366
thorax 1.18328 -4.74432 -5.50673
lowerneck -22.8397 17.1871 7.73844
upperneck -32.2867 15.3532 -20.9112
head -4.00878 5.00181 -7.14861
rclavicle 1.59028e-014 -2.14687e-014
rhumerus 30.6401 -6.82914 -88.0177
rradius 65.471
rwrist -23.9126
rhand -34.349 52.4235
rfingers 7.12502
rthumb -7.51646 22.5771
lclavicle 1.59028e-014 -2.14687e-014
lhumerus 37.6648 10.226 68.8627
lradius 38.6617
lwrist -2.4574
lhand -49.0211 30.7005
lfingers 7.12502
lthumb -21.6492 -300.49
rfemur -105.482 -1.30972 5.25633
rtibia 94.7634
rfoot -15.9051 2.78459
rtoes -30.7652
lfemur -60.3269 7.37368 -2.9936
ltibia 116.821
lfoot -5.49614 -12.3201
ltoes -26.1449
1419
root 19.309 13.7503 11.5303 219.997 -20.9257 -171.384
lowerback 40.9049 -0.268558 -0.95621
upperback 19.0001 -6.96832 -8.0328
thorax 0.433021 -4.7007 -5.61547
lowerneck -22.2924 16.4452 6.60584
upperneck -31.8167 14.9683 -19.6989
head -4.2125 5.06478 -6.65511
rclavicle 2.3218e-013 1.39944e-013
rhumerus 31.0844 -6.14425 -86.4426
rradius 66.0146
rwrist -22.4675
rhand -34.093 52.8991
rfingers 7.12502
rthumb -7.26938 23.044
lclavicle 2.3218e-013 1.39944e-013
lhumerus 36.7077 9.46243 67.0912
lradius 36.8606
lwrist -1.8178
lhand -49.5934 28.8946
lfingers 7.12502
lthumb -22.1988 -302.36
rfemur -105.068 -1.36525 5.8561
rtibia 96.161
rfoot -15.5314 4.71006
rtoes -29.8752
lfemur -64.7008 9.55077 -3.84981
ltibia 120.099
lfoot -5.37202 -13.5578
ltoes -19.2373
1420
root 19.3505 13.8131 11.1664 220.173 -21.5892 -171.423
lowerback 41.3757 -0.354864 -1.0435
upperback 18.3029 -6.94251 -8.30324
thorax -0.353763 -4.62013 -5.829
lowerneck -21.885 15.9211 5.78667
upperneck -31.1091 14.8122 -18.7431
head -4.22844 5.2144 -6.24209
rclavicle 1.39944e-013 -2.62396e-014
rhumerus 30.6964 -5.39078 -84.8136
rradius 67.1302
rwrist -21.291
rhand -34.8141 52.907
rfingers 7.12502
rthumb -7.96539 23.0771
lclavicle 1.39944e-013 -2.62396e-014
lhumerus 36.1354 8.93185 65.9518
lradius 34.7605
lwrist -2.47865
lhand -47.0986 26.2659
lfingers 7.12502
lthumb -19.8021 -304.723
rfemur -104.752 -1.41401 6.83028
rtibia 97.4388
rfoot -14.9126 6.17391
rtoes -28.9266
lfemur -69.8322 11.7355 -5.07819
ltibia 122.919
lfoot -6.06523 -14.266
ltoes -18.0072
